<svg xmlns="http://www.w3.org/2000/svg" viewBox="0 0 789.28 529.94"><defs><style>.cls-1{fill:#9a999e;}</style></defs><g id="Capa_2" data-name="Capa 2"><g id="Capa_1-2" data-name="Capa 1"><path class="cls-1" d="M264.13,226.89A42.26,42.26,0,1,0,308,154.78L66.19,7.43A42.26,42.26,0,1,0,22.36,79.54Z"/><path class="cls-1" d="M723.09,522.51a42.26,42.26,0,1,0,43.82-72.11L525.15,303.05a42.26,42.26,0,1,0-43.83,72.12Z"/><path class="cls-1" d="M767.87,219.92A42.25,42.25,0,1,0,724,147.77L476.33,298.68a42.26,42.26,0,1,0,43.93,72.15Z"/><path class="cls-1" d="M548.16,219.92a42.25,42.25,0,1,0-43.92-72.15L256.62,298.68a42.25,42.25,0,1,0,43.92,72.15Z"/><path class="cls-1" d="M21.4,310a42.26,42.26,0,1,0,43.93,72.15l247.61-150.9A42.26,42.26,0,1,0,269,159.11Z"/></g></g></svg>